<?xml version="1.0" standalone="no"?>
<!DOCTYPE svg PUBLIC "-//W3C//DTD SVG 20010904//EN"
 "http://www.w3.org/TR/2001/REC-SVG-20010904/DTD/svg10.dtd">
<svg version="1.0" xmlns="http://www.w3.org/2000/svg"
 width="1024.000000pt" height="1024.000000pt" viewBox="0 0 1024.000000 1024.000000"
 preserveAspectRatio="xMidYMid meet">
<metadata>
Created by potrace 1.11, written by Peter Selinger 2001-2013
</metadata>
<g transform="translate(0.000000,1024.000000) scale(0.100000,-0.100000)"
fill="#000000" stroke="none">
<path d="M2423 10225 c-34 -7 -70 -18 -81 -24 -11 -6 -22 -7 -26 -4 -3 3 -6 2
-6 -4 0 -10 -35 -26 -52 -24 -3 0 -12 -6 -18 -14 -7 -8 -19 -15 -26 -15 -8 0
-14 -3 -14 -7 0 -5 -23 -24 -50 -43 -27 -19 -50 -39 -50 -43 0 -4 -10 -19 -22
-32 -68 -70 -122 -179 -147 -290 -9 -42 -7 -9184 2 -9215 4 -14 9 -36 12 -49
2 -13 23 -62 47 -109 59 -120 164 -225 280 -281 161 -76 -85 -70 2839 -71
1854 0 2643 3 2684 11 159 29 287 110 405 255 23 29 90 166 96 199 1 6 3 12 4
15 1 3 4 14 8 25 3 11 7 2079 8 4595 2 3852 0 4585 -11 4638 -25 113 -86 223
-173 310 -93 93 -153 127 -317 180 -11 4 -1215 8 -2675 9 -2190 1 -2666 -1
-2717 -12z m2427 -627 c0 -4 14 -3 30 2 17 5 30 6 30 2 0 -4 16 -7 35 -7 19 0
35 3 35 7 0 4 14 3 30 -2 17 -5 30 -5 30 0 0 5 6 7 13 4 24 -9 71 -10 99 -3
15 4 30 4 33 -1 3 -5 16 -5 30 0 13 5 27 5 30 1 3 -5 21 -5 40 -1 19 4 35 4
35 0 0 -5 14 -5 30 0 17 5 30 5 30 0 0 -5 13 -5 30 0 17 5 30 6 30 2 0 -4 20
-8 43 -9 51 -1 133 -40 176 -82 129 -126 130 -330 4 -456 -44 -44 -111 -81
-158 -89 -16 -2 -31 -5 -32 -6 -8 -5 -84 -2 -89 3 -3 3 -16 2 -28 -3 -13 -4
-29 -5 -36 0 -7 5 -23 5 -34 0 -12 -4 -30 -4 -41 0 -11 4 -27 4 -36 -1 -9 -5
-19 -6 -22 -3 -7 7 -105 9 -112 2 -4 -3 -20 -2 -36 2 -16 5 -31 5 -34 0 -3 -4
-20 -4 -39 0 -19 4 -40 4 -47 0 -7 -5 -22 -5 -34 0 -12 5 -28 4 -35 0 -8 -5
-17 -7 -21 -4 -5 2 -33 6 -63 9 -68 5 -146 43 -198 98 -62 65 -88 137 -84 234
5 138 124 277 254 296 19 3 35 7 37 9 6 6 75 3 75 -4z m-2070 -1278 c0 -3 23
-5 50 -5 28 0 50 3 50 6 0 3 20 3 45 -1 25 -4 45 -4 45 -1 0 4 30 4 66 1 36
-3 68 -2 70 2 3 4 10 5 17 3 23 -9 82 -11 115 -4 17 4 34 3 37 -1 3 -4 21 -4
40 0 19 4 37 4 40 0 3 -4 21 -4 40 0 19 4 37 4 40 0 3 -4 21 -4 40 0 19 4 37
4 40 0 3 -4 21 -4 40 0 19 4 37 4 40 0 3 -4 21 -4 40 0 19 4 37 4 40 0 3 -4
21 -4 40 0 20 4 38 4 41 -1 3 -5 10 -7 15 -3 8 4 66 6 159 3 30 -1 133 0 163
2 6 0 26 0 42 0 17 -1 37 -1 45 0 8 0 24 0 35 -1 27 -1 87 -1 103 -1 6 1 18 1
25 2 6 0 30 0 52 0 22 -1 63 -1 90 0 28 0 55 0 60 -1 6 -1 14 -2 20 0 21 4
245 1 253 -4 4 -2 14 -1 21 3 7 5 28 5 47 1 19 -4 34 -5 34 -1 0 3 24 5 52 3
29 -1 58 -3 63 -3 17 -1 141 0 180 1 35 1 116 1 148 -1 6 0 39 1 72 1 33 1 65
1 70 0 6 -1 14 -2 20 0 21 4 245 1 253 -4 4 -2 14 -1 21 3 7 5 30 5 52 1 21
-4 39 -5 39 -1 0 3 21 5 47 4 52 -2 118 -3 172 -4 19 0 38 -2 42 -5 4 -2 10 0
14 6 4 6 11 8 16 5 5 -4 30 -6 56 -5 46 1 69 1 96 -1 20 0 114 0 162 1 35 1
116 1 148 -1 6 0 39 1 72 1 33 1 65 1 70 0 6 -1 14 -2 20 0 21 4 245 1 253 -4
4 -2 14 -1 21 3 7 5 30 5 52 1 21 -4 39 -5 39 -1 0 3 21 5 47 4 52 -2 118 -3
172 -4 19 0 38 -2 42 -5 4 -2 10 0 14 6 4 6 11 8 16 4 5 -3 34 -5 64 -4 58 1
66 1 119 -2 29 -1 35 -5 38 -29 3 -16 1 -34 -3 -40 -4 -6 -3 -24 1 -39 5 -17
4 -32 -2 -38 -6 -6 -6 -16 0 -29 6 -11 7 -25 2 -33 -5 -8 -5 -21 0 -30 5 -9 5
-22 0 -30 -5 -8 -5 -21 0 -30 5 -9 5 -22 0 -30 -5 -8 -5 -21 0 -30 5 -9 5 -22
0 -30 -5 -8 -5 -21 0 -30 5 -9 5 -22 0 -30 -5 -8 -5 -21 0 -30 5 -9 5 -22 0
-30 -5 -8 -5 -21 0 -30 5 -9 5 -22 0 -30 -5 -8 -5 -21 0 -30 5 -9 5 -22 0 -30
-5 -8 -5 -21 0 -30 5 -9 5 -22 0 -30 -5 -8 -6 -18 -3 -23 7 -12 6 -154 -2
-166 -3 -6 -2 -11 4 -11 6 0 6 -11 1 -30 -5 -17 -5 -30 0 -30 5 0 5 -13 0 -30
-5 -17 -5 -30 0 -30 5 0 5 -13 0 -30 -5 -17 -5 -30 0 -30 5 0 5 -13 0 -30 -5
-17 -5 -30 0 -30 5 0 5 -13 0 -30 -5 -17 -5 -30 0 -30 5 0 5 -13 0 -30 -5 -17
-5 -30 0 -30 5 0 5 -13 0 -30 -5 -17 -5 -30 0 -30 5 0 5 -13 0 -30 -5 -17 -5
-30 0 -30 5 0 5 -13 0 -30 -5 -17 -5 -30 0 -30 5 0 5 -13 0 -30 -5 -17 -5 -30
0 -30 5 0 5 -13 0 -30 -5 -17 -5 -30 0 -30 5 0 5 -13 0 -30 -5 -17 -5 -30 0
-30 5 0 5 -13 0 -30 -5 -17 -5 -30 0 -30 5 0 5 -13 0 -30 -5 -17 -5 -30 0 -30
5 0 5 -13 0 -30 -5 -17 -5 -30 0 -30 5 0 5 -13 0 -30 -5 -17 -5 -30 0 -30 5 0
5 -13 0 -30 -5 -17 -5 -30 0 -30 5 0 5 -13 0 -30 -5 -17 -5 -30 0 -30 5 0 5
-13 0 -30 -5 -17 -5 -30 0 -30 5 0 5 -13 0 -30 -5 -17 -5 -30 0 -30 5 0 5 -13
0 -30 -5 -17 -5 -30 0 -30 5 0 5 -13 0 -30 -5 -17 -5 -30 0 -30 5 0 5 -13 0
-30 -5 -17 -5 -30 0 -30 5 0 5 -13 0 -30 -5 -17 -5 -30 0 -30 5 0 5 -13 0 -30
-5 -17 -5 -30 0 -30 5 0 5 -13 0 -30 -5 -17 -5 -30 0 -30 5 0 5 -13 0 -30 -5
-17 -5 -30 0 -30 5 0 5 -13 0 -30 -5 -17 -5 -30 0 -30 5 0 5 -13 0 -30 -5 -17
-5 -30 0 -30 5 0 5 -13 0 -30 -5 -17 -5 -30 0 -30 5 0 5 -13 0 -30 -5 -17 -5
-30 0 -30 5 0 5 -13 0 -30 -5 -17 -5 -30 0 -30 5 0 5 -13 0 -30 -5 -17 -5 -30
0 -30 5 0 5 -13 0 -30 -5 -17 -5 -30 0 -30 5 0 5 -13 0 -30 -5 -16 -6 -30 -2
-30 8 0 7 -68 -1 -76 -3 -3 -2 -17 3 -30 6 -14 6 -26 0 -29 -5 -3 -6 -15 -1
-27 4 -12 5 -38 1 -59 -4 -21 -4 -43 1 -50 4 -7 4 -20 -1 -29 -5 -9 -5 -22 0
-30 5 -8 5 -21 0 -30 -5 -9 -5 -22 0 -30 5 -8 5 -21 0 -30 -5 -9 -5 -22 0 -30
5 -8 5 -21 0 -30 -5 -9 -5 -22 0 -30 5 -8 5 -21 0 -30 -5 -9 -5 -22 0 -30 5
-8 5 -21 0 -30 -5 -9 -5 -22 0 -30 5 -8 5 -21 0 -30 -5 -9 -5 -22 0 -30 5 -8
5 -21 0 -30 -5 -9 -5 -22 0 -30 5 -8 5 -21 0 -30 -5 -9 -5 -22 0 -30 5 -8 5
-21 0 -30 -5 -9 -5 -22 0 -30 5 -8 5 -21 0 -30 -5 -9 -5 -22 0 -30 5 -8 5 -21
0 -30 -5 -9 -5 -22 0 -30 5 -8 5 -21 0 -30 -5 -9 -5 -22 0 -30 5 -8 5 -21 0
-30 -5 -9 -5 -22 0 -30 5 -8 5 -21 0 -30 -5 -9 -5 -22 0 -30 5 -8 5 -21 0 -30
-5 -9 -5 -22 0 -30 5 -8 5 -21 0 -30 -5 -9 -5 -22 0 -30 5 -8 5 -21 0 -30 -5
-9 -5 -22 0 -30 5 -8 5 -21 0 -30 -5 -9 -5 -22 0 -30 5 -8 5 -21 0 -30 -5 -9
-5 -22 0 -30 5 -8 5 -21 0 -30 -5 -9 -5 -22 0 -30 5 -8 5 -21 0 -30 -5 -9 -5
-22 0 -30 5 -8 5 -21 0 -30 -5 -9 -5 -22 0 -30 5 -8 5 -21 0 -30 -5 -9 -5 -22
0 -30 5 -8 5 -21 0 -30 -5 -9 -5 -22 0 -30 5 -8 5 -21 0 -30 -5 -9 -5 -22 0
-30 5 -8 5 -21 0 -30 -5 -9 -5 -22 0 -30 5 -8 5 -21 0 -30 -5 -9 -5 -22 0 -30
5 -8 5 -21 0 -30 -5 -9 -5 -22 0 -30 5 -8 5 -21 0 -30 -5 -9 -5 -22 0 -30 5
-8 5 -21 0 -30 -5 -9 -5 -22 0 -30 5 -8 5 -21 0 -30 -5 -9 -5 -22 0 -30 5 -8
5 -21 0 -30 -5 -9 -5 -22 0 -30 5 -8 5 -21 0 -30 -5 -9 -5 -22 0 -30 5 -8 5
-21 0 -30 -5 -9 -5 -22 0 -30 5 -8 5 -21 0 -30 -5 -9 -5 -22 0 -30 5 -8 5 -21
0 -30 -5 -9 -5 -22 0 -30 5 -8 5 -21 0 -30 -5 -9 -5 -22 0 -30 5 -8 5 -21 0
-30 -5 -9 -5 -22 0 -30 5 -8 5 -21 0 -30 -5 -9 -5 -22 0 -30 5 -8 5 -21 0 -30
-5 -9 -5 -22 0 -30 4 -7 4 -24 0 -36 -6 -14 -5 -26 0 -29 5 -3 6 -15 1 -28 -5
-12 -5 -34 0 -49 4 -15 4 -30 -1 -33 -5 -3 -5 -16 0 -30 5 -14 5 -27 0 -30 -5
-3 -5 -18 0 -35 5 -17 5 -32 0 -35 -5 -3 -5 -16 0 -30 6 -15 6 -27 0 -30 -6
-3 -6 -15 0 -30 6 -15 6 -27 0 -30 -6 -3 -6 -15 0 -29 5 -13 6 -27 2 -30 -8
-8 -10 -46 -3 -46 5 0 6 -96 2 -143 -1 -4 -18 -8 -38 -7 -21 0 -46 0 -55 0
-38 -1 -118 -1 -150 1 -7 0 -40 -1 -73 -1 -33 -1 -64 -1 -70 0 -5 1 -14 2 -20
0 -21 -4 -245 -1 -253 4 -4 2 -14 1 -21 -3 -7 -5 -30 -5 -52 -1 -21 4 -39 5
-39 1 0 -3 -21 -5 -47 -4 -52 2 -118 3 -172 4 -19 0 -38 2 -42 5 -4 2 -10 0
-14 -6 -4 -6 -11 -8 -16 -5 -5 4 -30 6 -56 5 -46 -1 -69 -1 -95 1 -21 0 -115
0 -163 -1 -35 -1 -116 -1 -147 1 -7 0 -40 -1 -73 -1 -33 -1 -64 -1 -70 0 -5 1
-14 2 -20 0 -21 -4 -245 -1 -253 4 -4 2 -14 1 -21 -3 -7 -5 -30 -5 -52 -1 -21
4 -39 5 -39 1 0 -3 -21 -5 -47 -4 -52 2 -118 3 -172 4 -19 0 -38 2 -42 5 -4 2
-10 0 -14 -6 -4 -6 -11 -8 -16 -5 -5 4 -30 6 -56 5 -52 -1 -76 -1 -95 1 -7 1
-42 1 -78 0 -36 0 -72 -1 -80 0 -30 1 -133 0 -162 -2 -7 0 -26 0 -43 0 -16 1
-37 1 -45 0 -8 0 -24 0 -35 1 -27 1 -87 1 -102 1 -7 -1 -19 -1 -25 -2 -7 0
-31 0 -53 0 -22 1 -62 1 -90 0 -27 0 -54 0 -60 1 -5 1 -14 2 -20 0 -21 -4
-245 -1 -253 4 -4 2 -14 1 -21 -3 -7 -5 -28 -5 -47 -1 -19 4 -34 5 -34 1 0 -3
-24 -5 -52 -3 -92 5 -198 3 -207 -3 -5 -3 -12 -1 -15 4 -3 5 -21 5 -41 1 -19
-4 -37 -4 -40 0 -3 4 -21 4 -40 0 -19 -4 -37 -4 -40 0 -3 4 -21 4 -40 0 -19
-4 -37 -4 -40 0 -3 4 -21 4 -40 0 -19 -4 -37 -4 -40 0 -3 4 -21 4 -40 0 -19
-4 -37 -4 -40 0 -3 4 -21 4 -40 0 -19 -4 -37 -4 -40 0 -3 4 -20 5 -37 1 -41
-9 -45 -9 -84 -1 -18 4 -37 4 -44 0 -7 -4 -24 -4 -39 -1 -14 4 -43 4 -64 1
-20 -4 -40 -4 -42 0 -3 4 -20 4 -39 0 -19 -4 -40 -4 -46 0 -7 4 -24 4 -39 0
-14 -4 -35 -4 -45 0 -11 4 -37 3 -58 0 -21 -4 -41 -4 -43 0 -3 4 -20 4 -39 0
-19 -4 -38 -5 -41 -2 -3 3 -22 5 -43 4 -28 -2 -34 0 -25 9 7 7 9 19 3 34 -4
12 -4 28 0 35 5 8 5 21 0 30 -5 9 -5 22 0 29 4 8 4 27 0 42 -5 16 -5 29 0 29
5 0 5 13 0 30 -5 17 -5 30 0 30 5 0 5 12 1 28 -5 15 -5 37 0 49 5 13 4 25 -1
28 -6 3 -6 15 0 30 5 14 5 27 0 30 -5 3 -5 18 0 34 4 15 4 34 0 42 -5 7 -5 20
0 29 5 9 5 22 0 30 -5 8 -6 18 -3 23 7 12 7 102 0 114 -3 5 -2 15 3 23 5 8 5
21 0 30 -5 9 -5 22 0 29 4 8 4 27 0 42 -5 16 -5 29 0 29 5 0 5 13 0 30 -5 17
-5 30 0 30 5 0 5 13 0 30 -5 17 -5 30 0 30 5 0 5 13 0 30 -5 17 -5 30 0 30 5
0 5 13 0 30 -5 17 -5 30 0 30 5 0 5 13 0 30 -5 17 -5 30 0 30 5 0 5 13 0 30
-5 17 -5 30 0 30 5 0 5 13 0 30 -5 17 -5 30 0 30 5 0 5 13 0 30 -5 17 -5 30 0
30 5 0 5 13 0 30 -5 17 -5 30 0 30 5 0 5 13 0 30 -5 17 -5 30 0 30 5 0 5 13 0
30 -5 17 -5 30 0 30 5 0 5 13 0 30 -5 17 -5 30 0 30 5 0 5 13 0 30 -5 17 -5
30 0 30 5 0 5 13 0 30 -5 17 -5 30 0 30 5 0 5 13 0 30 -5 17 -5 30 0 30 5 0 5
13 0 30 -5 17 -5 30 0 30 5 0 5 13 0 30 -5 17 -5 30 0 30 5 0 5 13 0 30 -5 17
-5 30 0 30 5 0 5 13 0 30 -5 17 -5 30 0 30 5 0 5 13 0 30 -5 17 -5 30 0 30 5
0 5 13 0 30 -5 17 -5 30 0 30 5 0 5 13 0 30 -5 17 -5 30 0 30 5 0 5 13 0 30
-5 17 -5 30 0 30 5 0 5 13 0 30 -5 17 -5 30 0 30 5 0 5 13 0 30 -5 17 -5 30 0
30 5 0 5 13 0 30 -5 17 -5 30 0 30 5 0 5 13 0 30 -5 17 -5 30 0 30 5 0 5 13 0
30 -5 17 -5 30 0 30 5 0 5 13 0 30 -5 17 -5 30 0 30 5 0 5 13 0 30 -5 17 -5
30 0 30 5 0 5 13 0 30 -5 17 -5 30 0 30 5 0 5 13 0 30 -5 17 -5 30 0 30 5 0 5
13 0 30 -5 17 -5 30 0 30 5 0 5 13 0 30 -5 17 -5 30 0 30 5 0 5 13 0 30 -5 17
-5 30 0 30 5 0 5 13 0 30 -5 17 -5 30 0 30 5 0 5 13 0 30 -5 17 -5 30 0 30 5
0 5 13 0 30 -5 17 -5 30 0 30 5 0 5 13 0 30 -5 17 -5 30 0 30 5 0 5 13 0 30
-5 17 -5 30 0 30 5 0 5 13 0 30 -5 17 -5 30 0 30 5 0 5 13 0 30 -5 17 -5 30 0
30 5 0 5 13 0 30 -5 17 -5 30 0 30 5 0 5 13 0 30 -5 17 -5 30 0 30 5 0 5 13 0
30 -5 17 -5 30 0 30 5 0 5 13 0 30 -5 17 -5 30 0 30 5 0 5 13 0 30 -5 17 -5
30 0 30 5 0 5 13 0 30 -5 17 -5 30 0 30 5 0 5 13 0 30 -5 17 -5 30 0 30 5 0 5
13 0 30 -5 17 -5 30 0 30 5 0 5 13 0 30 -5 17 -5 30 0 30 5 0 5 13 0 30 -5 17
-5 30 0 30 5 0 5 13 0 30 -5 17 -5 30 0 30 5 0 5 13 0 30 -5 17 -5 30 0 30 5
0 5 13 0 30 -5 17 -5 30 0 30 5 0 5 13 0 30 -5 17 -5 30 0 30 5 0 5 13 0 30
-5 17 -5 30 0 30 5 0 5 13 0 30 -5 17 -5 30 0 30 5 0 5 13 0 30 -5 17 -5 30 0
30 5 0 5 13 0 30 -5 17 -5 30 0 30 5 0 5 13 0 30 -5 17 -5 30 0 30 5 0 5 13 0
30 -5 17 -5 30 0 30 5 0 5 13 0 30 -5 17 -5 30 0 30 5 0 5 13 0 30 -5 17 -5
30 0 30 5 0 5 13 0 30 -5 17 -5 30 0 30 5 0 5 13 0 30 -5 17 -5 30 0 30 5 0 5
13 0 30 -5 17 -5 30 0 30 5 0 5 13 0 30 -5 17 -5 30 0 30 5 0 5 13 0 30 -5 17
-5 30 0 30 5 0 5 13 0 30 -5 17 -5 30 0 30 5 0 5 13 0 30 -5 17 -5 30 0 30 5
0 5 13 0 30 -5 17 -5 30 0 30 5 0 5 13 0 30 -5 17 -5 30 0 30 5 0 5 13 0 30
-5 17 -5 30 0 30 5 0 5 13 0 30 -5 17 -5 30 0 30 5 0 5 13 0 30 -5 17 -5 30 0
30 5 0 5 13 0 30 -5 17 -5 30 0 30 5 0 5 13 0 30 -5 17 -5 30 0 30 5 0 5 12 1
28 -5 15 -5 37 0 49 5 13 4 25 -1 28 -6 3 -6 15 0 30 5 13 6 26 2 29 -8 5 -6
80 2 103 3 7 1 13 -4 13 -5 0 -5 13 0 30 5 17 5 30 0 30 -5 0 -5 13 0 29 4 15
4 34 0 42 -5 7 -5 20 0 29 5 9 5 22 0 30 -5 8 -5 21 0 30 5 9 5 22 0 29 -4 8
-4 27 0 42 5 16 5 29 0 29 -5 0 -5 13 0 30 5 17 5 30 0 30 -5 0 -5 13 0 29 4
15 4 34 0 42 -5 7 -5 20 0 29 5 9 5 22 0 30 -5 8 -5 21 -1 29 5 9 6 22 3 30
-3 10 2 13 22 9 14 -3 26 -2 26 1 0 3 38 6 85 6 47 0 85 -2 85 -5z m2135
-7040 c3 4 20 4 39 0 19 -4 40 -4 47 0 7 5 22 4 35 0 12 -5 25 -6 28 -3 8 8
133 6 146 -2 5 -3 10 -3 10 2 0 4 29 8 65 8 36 0 65 -3 65 -6 0 -4 16 -3 35 1
19 4 35 5 35 1 0 -3 24 -7 54 -8 91 -3 208 -80 246 -162 7 -14 18 -37 24 -50
14 -31 13 -179 -2 -211 -40 -85 -87 -136 -157 -173 -47 -24 -52 -26 -129 -32
-32 -3 -62 -8 -67 -10 -4 -3 -10 -1 -14 4 -3 7 -15 7 -30 1 -13 -5 -27 -5 -30
-1 -3 5 -21 5 -40 1 -19 -4 -35 -4 -35 0 0 5 -13 5 -30 0 -19 -5 -30 -5 -30 1
0 6 -5 7 -10 4 -14 -9 -108 -10 -116 -2 -4 3 -14 2 -23 -3 -10 -5 -23 -5 -31
0 -8 5 -21 5 -30 0 -9 -5 -22 -5 -30 0 -8 5 -21 5 -30 0 -9 -5 -22 -5 -30 0
-7 4 -23 4 -36 0 -12 -5 -24 -6 -28 -3 -3 3 -28 7 -55 9 -57 4 -133 39 -177
81 -37 36 -74 88 -74 106 0 7 -5 18 -12 25 -16 16 -16 178 0 212 41 85 87 136
157 173 49 25 55 27 128 32 32 2 61 6 64 8 2 3 18 1 34 -3 16 -5 31 -5 34 0z"/>
</g>
</svg>
