<!-- Generator: Adobe Illustrator 18.0.0, SVG Export Plug-In  -->
<svg version="1.1"
     xmlns="http://www.w3.org/2000/svg" xmlns:xlink="http://www.w3.org/1999/xlink" xmlns:a="http://ns.adobe.com/AdobeSVGViewerExtensions/3.0/"
     x="0px" y="0px" width="21.9px" height="21.9px" viewBox="0 0 21.9 21.9" enable-background="new 0 0 21.9 21.9"
     xml:space="preserve">
<defs>
</defs>
<path d="M17.7,0H4.2C1.9,0,0,1.9,0,4.2v4.5v9c0,2.3,1.9,4.2,4.2,4.2h13.4c2.3,0,4.2-1.9,4.2-4.2v-9V4.2C21.9,1.9,20,0,17.7,0z
     M18.9,2.5l0.5,0V3v3.2l-3.7,0l0-3.7L18.9,2.5z M7.8,8.7c0.7-1,1.8-1.6,3.1-1.6s2.4,0.6,3.1,1.6c0.5,0.6,0.7,1.4,0.7,2.2
    c0,2.1-1.7,3.9-3.9,3.9c-2.1,0-3.9-1.7-3.9-3.9C7.1,10.1,7.4,9.3,7.8,8.7z M19.8,17.7c0,1.2-0.9,2.1-2.1,2.1H4.2
    c-1.2,0-2.1-0.9-2.1-2.1v-9h3.3C5.1,9.4,5,10.2,5,11c0,3.3,2.7,6,6,6c3.3,0,6-2.7,6-6c0-0.8-0.2-1.6-0.4-2.2h3.3V17.7z"/>
</svg>
