<?xml version="1.0" encoding="utf-8"?>
<!-- Generator: Adobe Illustrator 18.0.0, SVG Export Plug-In . SVG Version: 6.00 Build 0)  -->
<!DOCTYPE svg PUBLIC "-//W3C//DTD SVG 1.1//EN" "http://www.w3.org/Graphics/SVG/1.1/DTD/svg11.dtd">
<svg version="1.1" id="Layer_1" xmlns:sketch="http://www.bohemiancoding.com/sketch/ns"
	 xmlns="http://www.w3.org/2000/svg" xmlns:xlink="http://www.w3.org/1999/xlink" x="0px" y="0px" viewBox="0 0 777 508"
	 enable-background="new 0 0 777 508" xml:space="preserve">
<title></title>
<desc></desc>
<g id="Page-1">
	<path id="vkontakte" fill="#8BC34A" d="M46.1,91.9C41.4,63.2,180.4,81,180.4,81S261,283.5,292.8,283.5s16.5-171.8,16.5-171.8
		s-39.4-10.3-39.4-26s39.4-26.7,39.4-26.7s102.1,0,116,0c13.9,0,19.4,22.6,19.4,37.6c0,15.1,0,184.1,0,184.1h31.8
		c0,0,28.3-45.5,50.6-91.7C549.5,142.9,576.6,81,576.6,81h134.8c0,0,24.7,0.7,21.8,21.2c-4,27.9-93.7,160.6-112.5,206
		c-14.1,34.2,59.4,80.5,90.7,130c20.3,32.1,21.8,69.8,21.8,69.8H573.1L493,414.9c0,0-16.5-6.8-29.4,2.7c-13,9.6-13.5,28.7-13.5,28.7
		V508H324.6c0,0-96-32.8-177.2-176.6S50.8,120.7,46.1,91.9z"/>
</g>
</svg>
